<?xml version="1.0" encoding="UTF-8"?>
<svg width="48px" height="48px" viewBox="0 0 48 48" version="1.1" xmlns="http://www.w3.org/2000/svg" xmlns:xlink="http://www.w3.org/1999/xlink">
    <!-- Generator: Sketch 49.2 (51160) - http://www.bohemiancoding.com/sketch -->
    <title>about us / icon01</title>
    <desc>Created with Sketch.</desc>
    <defs>
        <linearGradient x1="0%" y1="22.4305202%" x2="99.9461894%" y2="22.4305198%" id="linearGradient-1">
            <stop stop-color="#00CAFF" offset="0%"></stop>
            <stop stop-color="#0078FF" offset="99.9461894%"></stop>
        </linearGradient>
        <linearGradient x1="50%" y1="0%" x2="50%" y2="98.6042512%" id="linearGradient-2">
            <stop stop-color="#00CAFF" offset="0%"></stop>
            <stop stop-color="#0078FF" offset="99.9461894%"></stop>
        </linearGradient>
    </defs>
    <g id="about-us-/-icon01" stroke="none" stroke-width="1" fill="none" fill-rule="evenodd">
        <rect id="Rectangle-22" fill="#D8D8D8" opacity="0" x="0" y="0" width="48" height="48"></rect>
        <g id="Group-6" transform="translate(5.000000, 12.000000)">
            <path d="M0,11 L37.3636364,11 L37.3636364,16.1111111 C37.3636364,21.0203089 33.3839453,25 28.4747475,25 L8.88888889,25 C3.97969111,25 2.37756017e-15,21.0203089 1.77635684e-15,16.1111111 L0,11 Z" id="Rectangle-8" fill="url(#linearGradient-1)"></path>
            <path d="M25,0 C26.6568542,-3.04359188e-16 28,1.34314575 28,3 L28,3.47462277 C28,5.13147702 26.6568542,6.47462277 25,6.47462277 C23.3431458,6.47462277 22,5.13147702 22,3.47462277 L22,3 C22,1.34314575 23.3431458,3.04359188e-16 25,0 Z M33,0 C34.6568542,-3.04359188e-16 36,1.34314575 36,3 L36,3.47462277 C36,5.13147702 34.6568542,6.47462277 33,6.47462277 C31.3431458,6.47462277 30,5.13147702 30,3.47462277 L30,3 C30,1.34314575 31.3431458,3.04359188e-16 33,0 Z M3.23731139,0 L16.3990523,1.33226763e-15 C18.18697,1.00383247e-15 19.6363636,1.44939368 19.6363636,3.23731139 C19.6363636,5.02522909 18.18697,6.47462277 16.3990523,6.47462277 L3.23731139,6.47462277 C1.44939368,6.47462277 2.1895677e-16,5.02522909 0,3.23731139 C-2.1895677e-16,1.44939368 1.44939368,3.28435155e-16 3.23731139,0 Z" id="Combined-Shape" fill="url(#linearGradient-2)"></path>
        </g>
    </g>
</svg>