<?xml version="1.0" encoding="iso-8859-1"?>
<!-- Generator: Adobe Illustrator 16.0.0, SVG Export Plug-In . SVG Version: 6.00 Build 0)  -->
<!DOCTYPE svg PUBLIC "-//W3C//DTD SVG 1.1//EN" "http://www.w3.org/Graphics/SVG/1.1/DTD/svg11.dtd">
<svg version="1.1" id="Layer_3" xmlns="http://www.w3.org/2000/svg" xmlns:xlink="http://www.w3.org/1999/xlink" x="0px" y="0px"
	 width="70px" height="70px" viewBox="0 0 512 512" style="enable-background:new 0 0 512 512;" xml:space="preserve">
<path fill="#ffffff" d="M477.184,272.329v-32.658h-58.039c-3.275-32.977-16.363-63.108-36.293-87.43l41.095-41.095l-23.092-23.092l-41.096,41.095
	c-24.321-19.931-54.452-33.019-87.43-36.294V34.816h-32.658v58.039c-32.977,3.275-63.108,16.363-87.43,36.294l-41.096-41.096
	l-23.093,23.092l41.097,41.096c-19.931,24.321-33.019,54.453-36.294,87.43H34.816v32.658h58.039
	c3.275,32.977,16.363,63.108,36.293,87.43l-41.096,41.095l23.093,23.092l41.095-41.095c24.322,19.931,54.453,33.019,87.431,36.294
	v58.039h32.658v-58.039c32.977-3.275,63.108-16.363,87.429-36.294l41.096,41.096l23.092-23.092l-41.096-41.096
	c19.931-24.321,33.019-54.453,36.294-87.43H477.184z M378.782,239.671h-83.361l58.902-58.901
	C367.196,197.554,375.876,217.713,378.782,239.671z M331.23,157.677l-58.901,58.902v-83.361
	C294.288,136.123,314.446,144.804,331.23,157.677z M239.671,133.218v83.361l-58.901-58.902
	C197.554,144.803,217.712,136.123,239.671,133.218z M157.677,180.77l58.902,58.901h-83.361
	C136.123,217.713,144.803,197.554,157.677,180.77z M133.218,272.329h83.361l-58.902,58.901
	C144.803,314.446,136.123,294.287,133.218,272.329z M180.77,354.323l58.901-58.902v83.361
	C217.712,375.877,197.554,367.196,180.77,354.323z M272.329,378.782v-83.361l58.901,58.902
	C314.446,367.197,294.288,375.877,272.329,378.782z M354.323,331.23l-58.902-58.901h83.361
	C375.876,294.287,367.196,314.446,354.323,331.23z"/>
</svg>
