<?xml version="1.0" encoding="utf-8"?>
<!-- Generator: Adobe Illustrator 16.0.0, SVG Export Plug-In . SVG Version: 6.00 Build 0)  -->
<!DOCTYPE svg PUBLIC "-//W3C//DTD SVG 1.1//EN" "http://www.w3.org/Graphics/SVG/1.1/DTD/svg11.dtd">
<svg version="1.1" id="Layer_6" xmlns="http://www.w3.org/2000/svg" xmlns:xlink="http://www.w3.org/1999/xlink" x="0px" y="0px"
	 width="30px" height="30px" viewBox="0 0 100 100" enable-background="new 0 0 100 100" xml:space="preserve">
<path fill="#0b102c" d="M86.8,66.599c-0.025-0.185-0.034-0.477-0.102-0.805c-0.103-0.681-0.304-1.609-0.651-2.639
	c-0.344-1.032-0.831-2.169-1.455-3.305c-0.309-0.571-0.656-1.138-1.026-1.7c-0.188-0.279-0.378-0.56-0.581-0.832l-0.15-0.205
	l-0.076-0.103l-0.423-0.434l-0.013-0.011l-0.023-0.021l-0.049-0.042l-0.096-0.083l-0.049-0.042l-0.023-0.021l-0.137-0.097
	c-0.412-0.286-0.929-0.517-1.433-0.633c-0.122-0.027-0.26-0.056-0.364-0.066l-0.278-0.01c-0.188-0.002-0.378,0.007-0.566,0.026
	c-0.382,0.034-0.735,0.116-1.082,0.282c-0.327,0.141-0.729,0.386-0.927,0.542l-0.192,0.167c-0.259,0.22-0.507,0.45-0.753,0.68
	c-0.488,0.463-0.949,0.943-1.38,1.428c-0.862,0.967-1.589,1.967-2.153,2.897c-0.567,0.928-0.969,1.789-1.219,2.433
	c-0.137,0.306-0.211,0.589-0.275,0.764c-0.055,0.188-0.084,0.287-0.084,0.287s0.104-0.006,0.299-0.018
	c0.184-0.025,0.477-0.034,0.805-0.1c0.684-0.101,1.612-0.301,2.643-0.647c1.033-0.344,2.17-0.83,3.305-1.456
	c0.014-0.008,0.028-0.018,0.043-0.026c-0.307,0.654-0.601,1.352-0.925,2.085c-0.383,0.766-0.84,1.552-1.282,2.379
	c-0.488,0.808-1.063,1.617-1.611,2.468c-1.264,1.609-2.635,3.307-4.373,4.794c-1.654,1.562-3.649,2.894-5.76,4.088
	c-2.115,1.212-4.488,2.039-6.902,2.737c-0.615,0.136-1.232,0.272-1.853,0.41c-0.233,0.058-0.474,0.087-0.712,0.118l-1.229-52.117
	c2.162,0.418,4.572,1.329,7.195,3.008l1.617-2.527c-2.465-1.577-4.785-2.566-6.934-3.134c2.582-1.7,4.292-4.62,4.292-7.936
	c0-5.238-4.262-9.5-9.5-9.5s-9.5,4.262-9.5,9.5c0,3.462,1.868,6.489,4.643,8.149c-3.517,1.149-5.546,3.066-5.589,3.107l2.092,2.152
	c0.037-0.037,2.025-1.907,5.491-2.729l-2.454,52.039c-0.266-0.032-0.534-0.068-0.819-0.138c-0.619-0.137-1.237-0.273-1.852-0.409
	c-2.411-0.706-4.788-1.522-6.899-2.74c-2.109-1.193-4.104-2.526-5.756-4.088c-1.738-1.485-3.107-3.182-4.371-4.791
	c-0.55-0.85-1.127-1.657-1.613-2.466c-0.442-0.826-0.9-1.612-1.283-2.378c-0.107-0.241-0.206-0.472-0.309-0.704
	c0.991,0.516,1.976,0.944,2.879,1.245c1.029,0.347,1.959,0.547,2.642,0.647c0.329,0.065,0.621,0.074,0.806,0.1
	c0.195,0.012,0.299,0.018,0.299,0.018s-0.029-0.1-0.084-0.287c-0.064-0.175-0.139-0.458-0.275-0.764
	c-0.25-0.644-0.652-1.505-1.219-2.433c-0.564-0.931-1.292-1.931-2.154-2.897c-0.43-0.484-0.891-0.965-1.379-1.428
	c-0.246-0.229-0.494-0.46-0.754-0.68l-0.192-0.167c-0.198-0.156-0.599-0.401-0.927-0.542c-0.346-0.166-0.699-0.248-1.082-0.282
	c-0.188-0.02-0.378-0.028-0.566-0.026l-0.277,0.01c-0.105,0.011-0.242,0.039-0.365,0.066c-0.504,0.116-1.02,0.347-1.433,0.633
	l-0.136,0.097l-0.024,0.021l-0.048,0.042l-0.097,0.083l-0.048,0.042l-0.024,0.021l-0.013,0.011l-0.422,0.434l-0.076,0.103
	l-0.15,0.205c-0.203,0.272-0.395,0.553-0.582,0.832c-0.369,0.563-0.717,1.129-1.025,1.7c-0.625,1.136-1.111,2.272-1.456,3.305
	c-0.348,1.029-0.549,1.958-0.651,2.639c-0.066,0.328-0.076,0.62-0.102,0.805c-0.012,0.194-0.018,0.298-0.018,0.298
	s0.1-0.029,0.286-0.085c0.174-0.065,0.456-0.139,0.761-0.277c0.643-0.251,1.502-0.653,2.43-1.221
	c0.859-0.522,1.777-1.189,2.677-1.967c0.05,0.424,0.104,0.861,0.157,1.319c0.15,0.938,0.429,1.91,0.669,2.968
	c0.292,1.036,0.728,2.083,1.128,3.216c0.248,0.54,0.527,1.081,0.803,1.641c0.287,0.553,0.541,1.147,0.904,1.682
	c0.689,1.096,1.4,2.251,2.3,3.311c1.698,2.21,3.897,4.224,6.399,6.001c0.641,0.424,1.283,0.86,1.947,1.276
	c0.679,0.388,1.389,0.73,2.094,1.1c0.355,0.177,0.706,0.371,1.07,0.535l1.116,0.448c0.757,0.273,1.499,0.609,2.282,0.825
	c0.785,0.216,1.573,0.432,2.363,0.647c0.777,0.232,1.688,0.315,2.535,0.46l1.294,0.188c0.438,0.064,0.751,0.054,1.132,0.084
	l2.195,0.124c0.408,0.009,0.136,0.001,0.236,0.003L50,90.313l0.077-0.004l0.155-0.008l0.309-0.017l0.619-0.033l1.236-0.07
	c0.826-0.021,1.643-0.149,2.457-0.282c0.811-0.142,1.633-0.217,2.422-0.449c0.789-0.217,1.578-0.432,2.362-0.647
	c0.782-0.217,1.527-0.548,2.28-0.828l1.117-0.448c0.363-0.164,0.715-0.357,1.07-0.535c0.704-0.367,1.414-0.711,2.093-1.098
	c0.653-0.43,1.302-0.855,1.944-1.278c2.503-1.776,4.701-3.791,6.397-6.001c0.898-1.059,1.611-2.212,2.299-3.309
	c0.364-0.534,0.617-1.128,0.904-1.681c0.277-0.559,0.554-1.101,0.803-1.64c0.399-1.133,0.838-2.179,1.128-3.215
	c0.241-1.057,0.521-2.028,0.671-2.967c0.104-0.896,0.212-1.721,0.28-2.49c0.912,0.792,1.845,1.47,2.717,2
	c0.927,0.567,1.787,0.97,2.429,1.221c0.305,0.139,0.587,0.212,0.761,0.277c0.188,0.056,0.287,0.085,0.287,0.085
	S86.813,66.793,86.8,66.599z M21.666,62.173l0.037-0.031l0.05-0.04l0.024-0.021l-0.076,0.075c-0.016,0.015-0.038,0.023-0.055,0.037
	C21.653,62.187,21.66,62.18,21.666,62.173z M19.182,62.366c0.003,0.002,0.006,0.004,0.008,0.006c0,0.004,0,0.008,0,0.012
	c-0.099-0.064-0.184-0.132-0.213-0.169L19.182,62.366z M50.356,12.684c3.584,0,6.5,2.916,6.5,6.5s-2.916,6.5-6.5,6.5
	s-6.5-2.916-6.5-6.5S46.772,12.684,50.356,12.684z M78.223,60.94l0.023,0.021l0.05,0.04l0.038,0.031
	c0.006,0.007,0.013,0.014,0.019,0.021c-0.017-0.014-0.038-0.022-0.054-0.037L78.223,60.94z M80.692,61.313
	c0.041-0.03,0.084-0.058,0.125-0.088l0.205-0.151C80.982,61.125,80.837,61.235,80.692,61.313z"/>
</svg>
