<?xml version="1.0" encoding="utf-8"?>
<!-- Generator: Adobe Illustrator 16.0.0, SVG Export Plug-In . SVG Version: 6.00 Build 0)  -->
<!DOCTYPE svg PUBLIC "-//W3C//DTD SVG 1.1//EN" "http://www.w3.org/Graphics/SVG/1.1/DTD/svg11.dtd">
<svg version="1.1" id="Layer_1" xmlns="http://www.w3.org/2000/svg" xmlns:xlink="http://www.w3.org/1999/xlink" x="0px" y="0px"
	 width="100px" height="100px" viewBox="0 0 100 100" enable-background="new 0 0 100 100" xml:space="preserve">
<g>
	<path d="M47.661,51.632c0.743,0.296,1.855,0.342,2.464,0.342c0.518,0,1.397-0.038,2.108-0.232c-0.209,1.29-0.371,2.635-0.447,3.982
		c-0.002,0.004-0.006,0.006-0.008,0.01c-0.236,0.135-1.098,0.344-2.442,0.344c-1.344,0-2.205-0.209-2.443-0.344
		c-0.009-0.023-0.032-0.036-0.044-0.057C47.085,54.196,47.363,52.854,47.661,51.632z"/>
	<path d="M49.199,46.642c0.7,0.4,1.938,0.45,2.42,0.45c0.328,0,1.016-0.023,1.641-0.162c-0.283,1.082-0.568,2.3-0.814,3.6
		c-0.025,0.038-0.064,0.065-0.082,0.109c-0.223,0.13-1.014,0.333-2.237,0.333c-1.193,0-1.96-0.19-2.208-0.321
		C48.332,49.095,48.773,47.749,49.199,46.642z"/>
	<path d="M49.335,57.079c0.711,0,1.681-0.055,2.407-0.271c-0.035,1.754,0.092,3.484,0.461,5.08c-0.006,0.016-0.021,0.023-0.027,0.04
		c-0.254,0.169-1.293,0.44-2.981,0.44s-2.729-0.271-2.982-0.439c-0.005-0.018-0.021-0.024-0.027-0.039
		c0.115-1.862,0.291-3.582,0.516-5.161C47.488,57.029,48.684,57.079,49.335,57.079z"/>
	<path d="M46.119,62.976c0.916,0.34,2.314,0.393,3.074,0.393c0.819,0,2.385-0.06,3.284-0.477c0.441,1.409,1.111,2.674,2.064,3.71
		c-0.318,0.321-1.701,0.894-4.218,0.894c-2.832,0-4.236-0.727-4.292-1C46.032,65.267,46.067,64.104,46.119,62.976z"/>
	<path d="M56.711,42.495c-0.814,0-1.555-0.459-1.928-1.198c-0.158-0.316-0.238-0.643-0.238-0.969c0-0.618,0.26-1.19,0.732-1.612
		c0.402-0.358,0.912-0.555,1.434-0.555c1.195,0,2.168,0.972,2.168,2.167C58.879,41.523,57.906,42.495,56.711,42.495z"/>
	<path d="M49.458,39.035c-5.898,0-10.784,5.397-12.897,8.16c1.469-7.254,10.711-11.742,10.812-11.79
		c0.193-0.092,0.307-0.297,0.281-0.51c-0.025-0.212-0.183-0.386-0.393-0.43c-6.839-1.446-11.099,0.722-13.229,2.398
		c0.917-1.901,2.274-3.3,4.053-4.174c5.482-2.693,13.269,0.405,13.347,0.437c0.203,0.081,0.438,0.021,0.578-0.151
		c0.139-0.172,0.145-0.416,0.02-0.597c-2.456-3.547-4.791-5.281-6.606-6.117c3.9-0.088,6.915,0.696,8.772,2.314
		c1.975,1.716,2.016,3.754,2.018,3.838c0,0.202,0.121,0.384,0.309,0.461c0.188,0.079,0.402,0.035,0.545-0.108
		c2.734-2.735,5.486-3.944,8.16-3.596c2.465,0.321,4.459,1.912,5.781,3.326c-4.832-1.96-10.535,1.482-10.818,1.657
		c-0.191,0.117-0.281,0.347-0.221,0.562c0.063,0.215,0.258,0.364,0.48,0.364c6.295,0,10.479,1.378,12.439,4.097
		c0.775,1.076,1.08,2.223,1.164,3.216c-0.268-0.439-0.605-0.835-1.02-1.184c-3.18-2.694-9.566-1.667-9.836-1.622
		c-0.256,0.042-0.438,0.275-0.416,0.534c0.023,0.259,0.238,0.459,0.498,0.459c1.256,0,2.297,0.442,3.186,1.35
		c2.027,2.075,2.662,6.042,2.855,8.525c-2.436-3.185-8.232-7.764-9.639-8.853c-0.02-0.015-0.041-0.019-0.063-0.03
		c0.164-0.382,0.258-0.801,0.258-1.242c0-1.746-1.424-3.167-3.168-3.167c-0.576,0-1.141,0.162-1.635,0.464
		c-0.592-0.783-1.506-1.255-2.504-1.255C51,36.37,49.7,37.528,49.458,39.035z"/>
	<path d="M52.574,37.37c0.697,0,1.34,0.337,1.744,0.899c-0.033,0.037-0.055,0.079-0.086,0.118c-0.049,0.063-0.094,0.128-0.139,0.194
		c-0.074,0.109-0.141,0.22-0.197,0.336c-0.035,0.07-0.072,0.138-0.102,0.21c-0.055,0.128-0.096,0.26-0.133,0.395
		c-0.016,0.065-0.037,0.127-0.053,0.192c-0.041,0.202-0.066,0.407-0.066,0.615c0,0.217,0.031,0.432,0.076,0.644
		c0.016,0.06,0.031,0.118,0.049,0.178c0.02,0.07,0.029,0.141,0.057,0.211c-0.348,0.223-0.746,0.342-1.152,0.342
		c-1.193,0-2.167-0.972-2.167-2.167S51.379,37.37,52.574,37.37z"/>
	<path d="M52.574,42.704c0.576,0,1.139-0.162,1.633-0.463c0.107,0.143,0.227,0.275,0.355,0.396c-0.168,0.471-0.551,1.59-0.986,3.125
		c-0.002,0.006-0.008,0.009-0.01,0.015c-0.197,0.124-0.887,0.315-1.947,0.315s-1.75-0.192-1.947-0.315
		c-0.014-0.044-0.053-0.071-0.077-0.109c0.788-1.86,1.452-2.922,1.675-3.253C51.668,42.596,52.107,42.704,52.574,42.704z"/>
	<path d="M45.045,65.154c-0.007,0.441-0.013,0.886-0.013,1.341c0,1.375,2.743,2,5.292,2c2.547,0,5.292-0.625,5.292-2
		c0-0.063-0.014-0.129-0.039-0.189c-0.025-0.063-0.063-0.118-0.109-0.165c-0.271-0.271-0.512-0.573-0.736-0.886
		c10.082,0.951,17.432,4.438,17.998,8.49H25.948C26.545,69.572,34.535,65.936,45.045,65.154z"/>
</g>
</svg>
