<?xml version="1.0" encoding="utf-8"?>
<!-- Generator: Adobe Illustrator 16.0.0, SVG Export Plug-In . SVG Version: 6.00 Build 0)  -->
<!DOCTYPE svg PUBLIC "-//W3C//DTD SVG 1.1//EN" "http://www.w3.org/Graphics/SVG/1.1/DTD/svg11.dtd">
<svg version="1.1" id="Layer_1" xmlns="http://www.w3.org/2000/svg" xmlns:xlink="http://www.w3.org/1999/xlink" x="0px" y="0px"
	 width="70px" height="70px" viewBox="0 0 50 50" enable-background="new 0 0 50 50" xml:space="preserve">
<path fill="#ffffff" d="M43.758,41.305c-0.223-0.869-2.943-2.1-2.943-2.1c-1.077,0.123-1.709-0.686-1.709-0.686c-0.578-0.656-0.92,0.197-0.92,0.197
	c-0.521,0.961-2.693,1.518-2.693,1.518c-1.453,1.852-1.592,1.341-1.592,1.341c-0.623-1.632,2.965-7.301,2.965-7.301
	c-4.59-8.797-18.36-15.538-18.36-15.538c0.118-0.517,1.204-1.462,1.204-1.462l-0.214-0.484c-1.671-0.095-3.209,6.612-3.209,6.612
	c-1.825-1.376-1.639-6.312-1.639-6.312c-1.042-0.75-4.716-1.857-6.382-1.955c-1.209-0.071-1.718-0.227-2.042-0.653
	c-1.264-1.665,2.907-2.368,2.907-2.368c3.997-7.065,15.09-1.914,15.09-1.914c3.312-2.685,6.312-1.64,6.312-1.64
	c2.273,0.701,0.892,0.933,0.892,0.933c-2.375,0.714-2.576,3.543-2.576,3.543c10.297,7.76,9.719,18.867,9.719,18.867
	c0.062,0.987-0.011,1.889-0.011,1.889c3.612,2.164,4.955,5.36,4.955,5.36C44.481,41.521,43.758,41.305,43.758,41.305z
	 M18.221,29.258c-5.752,2.735-10.417,0.913-10.417,1.157c0,1.034,4.664,3.895,10.417,1.157c5.753-2.735,10.417-0.913,10.417-1.157
	C28.638,29.381,23.974,26.521,18.221,29.258z M18.221,34.218c-5.752,2.737-10.417,0.913-10.417,1.157
	c0,1.034,4.664,3.895,10.417,1.158c5.753-2.736,10.417-0.914,10.417-1.158C28.638,34.341,23.974,31.481,18.221,34.218z"/>
</svg>
