<?xml version="1.0" encoding="iso-8859-1"?>
<!-- Generator: Adobe Illustrator 17.1.0, SVG Export Plug-In . SVG Version: 6.00 Build 0)  -->
<!DOCTYPE svg PUBLIC "-//W3C//DTD SVG 1.1//EN" "http://www.w3.org/Graphics/SVG/1.1/DTD/svg11.dtd">
<svg version="1.1" id="Capa_1" xmlns="http://www.w3.org/2000/svg" xmlns:xlink="http://www.w3.org/1999/xlink" x="0px" y="0px"
	 viewBox="0 0 64 64" style="enable-background:new 0 0 64 64;" xml:space="preserve">
<g>
	<path fill="#ffffff" d="M3.625,42.005c1.741,0.518,4.886,1.136,9.985,1.136h0.002c6.1,0,13.378-0.886,21.631-2.634
		c5.862-1.242,10.416-2.409,13.96-3.468c0.811,1.064,2.454,2.783,4.85,3.185c1.089,0.183,1.811-0.862,1.67-1.957
		c-0.132-1.017-0.239-2.274-0.182-3.397c2.701-1.082,4.193-1.962,5.008-2.576c0.93-0.699,1.279-1.848,1.136-2.572l-0.267-1.363
		c-0.141-0.725-0.899-1.656-2.024-1.954c-1.261-0.333-3.046-0.5-5.306-0.5c-5.042,0-12.184,0.83-21.227,2.466
		C13.423,31.889,5.519,36.933,3.023,38.938c-0.568,0.456-0.834,1.104-0.71,1.733C2.437,41.299,2.927,41.798,3.625,42.005z"/>
</g>
</svg>
