<?xml version="1.0" encoding="utf-8"?>
<!-- Generator: Adobe Illustrator 18.1.0, SVG Export Plug-In . SVG Version: 6.00 Build 0)  -->
<!DOCTYPE svg PUBLIC "-//W3C//DTD SVG 1.1//EN" "http://www.w3.org/Graphics/SVG/1.1/DTD/svg11.dtd">
<svg version="1.1" id="Layer_1" xmlns="http://www.w3.org/2000/svg" xmlns:xlink="http://www.w3.org/1999/xlink" x="0px" y="0px"
	 viewBox="0 0 193 39" enable-background="new 0 0 193 39" xml:space="preserve">
<path fill="#FF671B" d="M13.3,27.4C6.4,27.4,1,21.9,1,15C1,8.2,6.4,2.6,13.3,2.6c3.9,0,6.9,1.6,9.2,4.3l-3.7,3.2
	c-1.5-1.6-3.4-2.7-5.6-2.7C9.1,7.4,6,10.7,6,15c0,4.4,3.2,7.7,7.3,7.7c2.3,0,4.2-1.2,5.7-2.9l3.8,3C20.4,25.6,17.4,27.4,13.3,27.4z"
	/>
<path fill="#FF671B" d="M23.1,18.6c0-5,3.9-8.8,8.8-8.8c4.9,0,8.8,3.8,8.8,8.8s-3.9,8.8-8.8,8.8C27,27.4,23.1,23.6,23.1,18.6z
	 M36,18.6c0-2.6-1.6-4.4-4.1-4.4c-2.5,0-4.1,1.9-4.1,4.4c0,2.6,1.7,4.5,4.1,4.5C34.4,23.1,36,21.2,36,18.6z"/>
<path fill="#FF671B" d="M42.3,27.1V1.2h4.9v25.9H42.3z"/>
<path fill="#FF671B" d="M50,27.1V1.2h4.9v25.9H50z"/>
<path fill="#FF671B" d="M61.2,19.7c0.3,2.8,2.1,3.8,4,3.8c1.9,0,3.1-0.9,4-2.1l3.2,2.3c-1.8,2.4-3.6,3.7-7.4,3.7
	c-4.9,0-8.6-3.6-8.6-8.8c0-4.8,3.2-8.8,8.4-8.8c5.7,0,7.9,4.1,7.9,9.2v0.6H61.2z M61.3,16.7H68c-0.3-1.9-1.8-2.9-3.3-2.9
	C63.1,13.8,61.8,14.8,61.3,16.7z"/>
<path fill="#FF671B" d="M85,10.5l2.1-2.4l2.8,2.7l-2,2c1,1.2,1.5,2.6,1.5,4.2c0,4.2-3.4,7-7.7,7c-1,0-1.9-0.1-2.7-0.3
	c-1.5,1.2-1.6,2.8,0.7,2.8c1.6,0,2.6-0.7,4.9-0.7c8.8,0,8.7,12.3-2.9,12.3c-8.7,0-10.5-5.7-7.6-9.5c-1.2-1.9-0.7-4.9,1.6-6.7
	c-1.1-1.2-1.8-2.9-1.8-4.8c0-4.2,3.5-7,7.7-7C83,9.9,84.1,10.1,85,10.5z M77.5,30.4c-0.9,1.8,0.2,3.5,4.3,3.5c6.1,0,5.9-4.2,2.7-4.2
	c-1.9,0-3.7,0.8-6.2,0.8C78.1,30.5,77.7,30.4,77.5,30.4z M81.8,20c1.9,0,3.1-1.1,3.1-3c0-2-1.2-3.1-3.1-3.1c-1.9,0-3.2,1.2-3.2,3.1
	C78.6,18.9,80,20,81.8,20z"/>
<path fill="#FF671B" d="M95.6,19.7c0.3,2.8,2.1,3.8,4,3.8c1.9,0,3.1-0.9,4-2.1l3.2,2.3c-1.8,2.4-3.6,3.7-7.4,3.7
	c-4.9,0-8.6-3.6-8.6-8.8c0-4.8,3.2-8.8,8.4-8.8c5.7,0,7.9,4.1,7.9,9.2v0.6H95.6z M95.7,16.7h6.7c-0.3-1.9-1.8-2.9-3.3-2.9
	C97.5,13.8,96.2,14.8,95.7,16.7z"/>
<path fill="#FF671B" d="M108.7,27.1V2.9h7.5c4.1,0,6.3,2.4,6.3,5.6c0,2.2-1,3.6-2.6,4.5c3.1,1,5,3.3,5,6.6c0,4.2-2.7,7.4-9.1,7.4
	H108.7z M115.6,11.6c2.9,0,3.4-5.1,0-5.1h-1.9v5.1H115.6z M116.4,23c4.9,0,4.6-7,0-7h-2.8v7H116.4z"/>
<path fill="#FF671B" d="M131.3,19.7c0.3,2.8,2.1,3.8,4,3.8c1.9,0,3.1-0.9,4-2.1l3.2,2.3c-1.8,2.4-3.6,3.7-7.4,3.7
	c-4.9,0-8.6-3.6-8.6-8.8c0-4.8,3.2-8.8,8.4-8.8c5.7,0,7.9,4.1,7.9,9.2v0.6H131.3z M131.4,16.7h6.7c-0.3-1.9-1.8-2.9-3.3-2.9
	C133.2,13.8,131.9,14.8,131.4,16.7z"/>
<path fill="#FF671B" d="M146,10.2v-6h4.8v6h2.4v4.5h-2.4v12.3H146V14.7h-2.3v-4.5H146z"/>
<path fill="#FF671B" d="M157.2,10.2v-6h4.8v6h2.4v4.5H162v12.3h-4.8V14.7h-2.3v-4.5H157.2z"/>
<path fill="#FF671B" d="M169.9,19.7c0.3,2.8,2.1,3.8,4,3.8c1.9,0,3.1-0.9,4-2.1l3.2,2.3c-1.8,2.4-3.6,3.7-7.4,3.7
	c-4.9,0-8.6-3.6-8.6-8.8c0-4.8,3.2-8.8,8.4-8.8c5.7,0,7.9,4.1,7.9,9.2v0.6H169.9z M170.1,16.7h6.7c-0.3-1.9-1.8-2.9-3.3-2.9
	C171.9,13.8,170.5,14.8,170.1,16.7z"/>
<path fill="#FF671B" d="M187.9,27.1H183V10.2h4.8v1.1c0,0.4-0.1,1-0.2,1.7c1-1.8,2.5-3.2,4.7-3.2v4.7c-2.5,0-4.5,1.4-4.5,4.2V27.1z"
	/>
</svg>
